# Blender v2.83.0 OBJ File: ''
# www.blender.org
mtllib SAMURAI_SPROUT_SIMULATION.mtl
o Cube
v 1.000000 0.100000 -3.874807
v 1.000000 -0.100000 -3.874807
v 1.000000 0.100000 3.874807
v 1.000000 -0.100000 3.874807
v -1.000000 0.100000 -3.874807
v -1.000000 -0.100000 -3.874807
v -1.000000 0.100000 3.874807
v -1.000000 -0.100000 3.874807
vt 0.625000 0.500000
vt 0.875000 0.500000
vt 0.875000 0.750000
vt 0.625000 0.750000
vt 0.375000 0.750000
vt 0.625000 1.000000
vt 0.375000 1.000000
vt 0.375000 0.000000
vt 0.625000 0.000000
vt 0.625000 0.250000
vt 0.375000 0.250000
vt 0.125000 0.500000
vt 0.375000 0.500000
vt 0.125000 0.750000
vn 0.0000 1.0000 0.0000
vn 0.0000 0.0000 1.0000
vn -1.0000 0.0000 0.0000
vn 0.0000 -1.0000 0.0000
vn 1.0000 0.0000 0.0000
vn 0.0000 0.0000 -1.0000
usemtl Material
s off
f 1/1/1 5/2/1 7/3/1 3/4/1
f 4/5/2 3/4/2 7/6/2 8/7/2
f 8/8/3 7/9/3 5/10/3 6/11/3
f 6/12/4 2/13/4 4/5/4 8/14/4
f 2/13/5 1/1/5 3/4/5 4/5/5
f 6/11/6 5/10/6 1/1/6 2/13/6
o Circle
v 2.004729 2.418263 -0.244464
v 2.050102 2.418263 -0.249253
v 1.961099 2.418263 -0.230280
v 1.920889 2.418263 -0.207246
v 1.885645 2.418263 -0.176248
v 1.856721 2.418263 -0.138477
v 1.835229 2.418263 -0.095385
v 1.821994 2.418263 -0.048627
v 1.817525 2.418263 0.000000
v 1.821994 2.418263 0.048627
v 1.835229 2.418263 0.095385
v 1.856721 2.418263 0.138477
v 1.885645 2.418263 0.176248
v 1.920889 2.418263 0.207246
v 1.961099 2.418263 0.230280
v 2.004729 2.418263 0.244464
v 2.050102 2.418263 0.249253
v 2.095476 2.418263 0.244464
v 2.139106 2.418263 0.230280
v 2.179315 2.418263 0.207246
v 2.214559 2.418263 0.176248
v 2.243483 2.418263 0.138477
v 2.264975 2.418263 0.095385
v 2.278210 2.418263 0.048627
v 2.282679 2.418263 0.000000
v 2.278210 2.418263 -0.048627
v 2.264975 2.418263 -0.095385
v 2.243483 2.418263 -0.138478
v 2.214559 2.418263 -0.176249
v 2.179315 2.418263 -0.207246
v 2.139105 2.418263 -0.230280
v 2.095475 2.418263 -0.244464
l 10 40
l 40 39
l 39 38
l 38 37
l 37 36
l 36 35
l 35 34
l 34 33
l 33 32
l 32 31
l 31 30
l 30 29
l 29 28
l 28 27
l 27 26
l 26 25
l 25 24
l 24 23
l 23 22
l 22 21
l 21 20
l 20 19
l 19 18
l 18 17
l 17 16
l 16 15
l 15 14
l 14 13
l 13 12
l 12 11
l 11 9
l 9 10
o Cube.001_Cube.002
v -0.764898 -0.003534 -3.008773
v -0.964898 -0.003534 -3.008773
v -0.764898 -0.003534 3.008773
v -0.964898 -0.003534 3.008773
v -0.764898 0.983271 -3.008773
v -0.964898 0.983271 -3.008773
v -0.764898 0.983271 3.008773
v -0.964898 0.983271 3.008773
vt 0.625000 0.500000
vt 0.875000 0.500000
vt 0.875000 0.750000
vt 0.625000 0.750000
vt 0.375000 0.750000
vt 0.625000 1.000000
vt 0.375000 1.000000
vt 0.375000 0.000000
vt 0.625000 0.000000
vt 0.625000 0.250000
vt 0.375000 0.250000
vt 0.125000 0.500000
vt 0.375000 0.500000
vt 0.125000 0.750000
vn 1.0000 -0.0000 0.0000
vn 0.0000 0.0000 1.0000
vn 0.0000 1.0000 0.0000
vn -1.0000 0.0000 0.0000
vn 0.0000 -1.0000 0.0000
vn 0.0000 0.0000 -1.0000
usemtl Material.001
s off
f 41/15/7 45/16/7 47/17/7 43/18/7
f 44/19/8 43/18/8 47/20/8 48/21/8
f 48/22/9 47/23/9 45/24/9 46/25/9
f 46/26/10 42/27/10 44/19/10 48/28/10
f 42/27/11 41/15/11 43/18/11 44/19/11
f 46/25/12 45/24/12 41/15/12 42/27/12
o Cube.002_Cube.003
v 1.005931 -0.017726 -3.008773
v 0.805931 -0.017726 -3.008773
v 1.005931 -0.017726 3.008773
v 0.805931 -0.017726 3.008773
v 1.005931 0.969078 -3.008773
v 0.805931 0.969078 -3.008773
v 1.005931 0.969078 3.008773
v 0.805931 0.969078 3.008773
vt 0.625000 0.500000
vt 0.875000 0.500000
vt 0.875000 0.750000
vt 0.625000 0.750000
vt 0.375000 0.750000
vt 0.625000 1.000000
vt 0.375000 1.000000
vt 0.375000 0.000000
vt 0.625000 0.000000
vt 0.625000 0.250000
vt 0.375000 0.250000
vt 0.125000 0.500000
vt 0.375000 0.500000
vt 0.125000 0.750000
vn 1.0000 0.0000 0.0000
vn 0.0000 0.0000 1.0000
vn 0.0000 1.0000 0.0000
vn -1.0000 0.0000 0.0000
vn 0.0000 -1.0000 0.0000
vn 0.0000 0.0000 -1.0000
usemtl Material.002
s off
f 49/29/13 53/30/13 55/31/13 51/32/13
f 52/33/14 51/32/14 55/34/14 56/35/14
f 56/36/15 55/37/15 53/38/15 54/39/15
f 54/40/16 50/41/16 52/33/16 56/42/16
f 50/41/17 49/29/17 51/32/17 52/33/17
f 54/39/18 53/38/18 49/29/18 50/41/18
o Cube.003_Cube.004
v 1.049585 1.078896 -2.929239
v 1.049585 0.878896 -2.929239
v 1.049585 1.078896 2.929239
v 1.049585 0.878896 2.929239
v -0.950415 1.078896 -2.929239
v -0.950415 0.878896 -2.929239
v -0.950415 1.078896 2.929239
v -0.950415 0.878896 2.929239
v -0.950415 0.878896 0.856177
v 1.049585 1.078896 0.856177
v -0.950415 1.078896 0.856177
v 1.049585 0.878896 0.856177
vt 0.625000 0.661536
vt 0.875000 0.661536
vt 0.875000 0.750000
vt 0.625000 0.750000
vt 0.375000 0.750000
vt 0.625000 1.000000
vt 0.375000 1.000000
vt 0.375000 0.088464
vt 0.625000 0.088464
vt 0.625000 0.250000
vt 0.375000 0.250000
vt 0.125000 0.661536
vt 0.375000 0.661536
vt 0.125000 0.750000
vt 0.625000 0.500000
vt 0.375000 0.500000
vt 0.125000 0.500000
vt 0.375000 0.000000
vt 0.625000 0.000000
vt 0.875000 0.500000
vn 0.0000 1.0000 0.0000
vn 0.0000 0.0000 1.0000
vn -1.0000 0.0000 0.0000
vn 0.0000 -1.0000 0.0000
vn 1.0000 0.0000 0.0000
vn 0.0000 0.0000 -1.0000
usemtl Material.003
s off
f 66/43/19 67/44/19 63/45/19 59/46/19
f 60/47/20 59/46/20 63/48/20 64/49/20
f 65/50/21 67/51/21 61/52/21 62/53/21
f 65/54/22 68/55/22 60/47/22 64/56/22
f 68/55/23 66/43/23 59/46/23 60/47/23
f 62/53/24 61/52/24 57/57/24 58/58/24
f 58/58/23 57/57/23 66/43/23 68/55/23
f 62/59/22 58/58/22 68/55/22 65/54/22
f 64/60/21 63/61/21 67/51/21 65/50/21
f 57/57/19 61/62/19 67/44/19 66/43/19
o Cube.004_Cube.012
v -0.715750 0.087258 2.475999
v -0.715750 1.015880 2.475999
v -0.719748 0.085041 -2.706809
v 0.963183 0.085041 -2.706809
v 0.959185 0.087258 2.475999
v 0.959185 1.015880 2.475999
v -0.719748 1.018096 -2.706809
v 0.963183 1.018096 -2.706809
v 0.287993 0.643756 -3.525480
v 0.455353 0.366594 -3.139114
v -0.211918 0.366594 -3.139114
v -0.211918 0.736544 -3.139114
v -0.044558 0.459382 -3.525480
v 0.287993 0.459382 -3.525480
v 0.455353 0.736544 -3.139114
v -0.044558 0.643756 -3.525480
v 0.959185 0.087258 -2.706809
v -0.715750 0.087258 -2.706809
v 0.959185 1.015880 -2.434931
v 0.959185 0.087258 -2.434931
v 0.959185 1.015880 -2.706809
v -0.715750 1.015880 -2.706809
v -0.715750 1.015880 -2.434931
v -0.715750 0.087258 -2.434931
v -0.715750 0.087258 2.475999
v -0.715750 1.015880 2.475999
v 0.959185 0.087258 2.475999
v 0.959185 1.015880 2.475999
v -0.715750 0.087258 2.820616
v -0.715750 1.015880 2.820616
v 0.959185 0.087258 2.820616
v 0.959185 1.015880 2.820616
v -0.102720 0.427136 3.924834
v -0.102720 0.676002 3.924834
v 0.346155 0.427136 3.924834
v 0.346155 0.676002 3.924834
v 0.016664 0.493325 4.504092
v 0.016664 0.609813 4.504092
v 0.226771 0.493325 4.504092
v 0.226771 0.609813 4.504092
v 0.016664 0.493325 5.409748
v 0.016664 0.609813 5.409748
v 0.226771 0.493325 5.409748
v 0.226771 0.609813 5.409748
v 0.287993 0.643756 -5.106105
v -0.044558 0.459382 -5.106105
v 0.287993 0.459382 -5.106105
v -0.044558 0.643756 -5.106105
vt 0.625000 0.000000
vt 0.625000 0.000000
vt 0.625000 0.000000
vt 0.625000 0.000000
vt 0.875000 0.750000
vt 0.500000 0.750000
vt 0.500000 0.750000
vt 0.875000 0.750000
vt 0.875000 0.750000
vt 0.500000 0.750000
vt 0.500000 0.750000
vt 0.875000 0.750000
vt 0.625000 0.750000
vt 0.875000 0.750000
vt 0.875000 0.750000
vt 0.500000 0.750000
vt 0.375000 0.750000
vt 0.125000 0.750000
vt 0.125000 0.750000
vt 0.375000 0.750000
vt 0.375000 0.750000
vt 0.125000 0.750000
vt 0.625000 0.000000
vt 0.625000 0.000000
vt 0.375000 0.750000
vt 0.125000 0.750000
vt 0.625000 0.000000
vt 0.625000 0.000000
vt 0.375000 0.750000
vt 0.125000 0.750000
vt 0.625000 0.000000
vt 0.625000 0.000000
vt 0.375000 0.750000
vt 0.625000 0.000000
vt 0.375000 0.000000
vt 0.125000 0.750000
vt 0.375000 0.750000
vt 0.125000 0.750000
vt 0.625000 0.000000
vt 0.625000 0.000000
vt 0.875000 0.750000
vt 0.500000 0.750000
vt 0.875000 0.750000
vt 0.500000 0.750000
vt 0.375000 0.750000
vt 0.125000 0.750000
vt 0.625000 0.000000
vt 0.625000 0.000000
vt 0.500000 0.750000
vt 0.375000 0.750000
vt 0.125000 0.750000
vt 0.625000 0.000000
vt 0.625000 0.000000
vt 0.875000 0.750000
vt 0.375000 0.750000
vt 0.125000 0.750000
vt 0.625000 0.000000
vt 0.625000 0.000000
vt 0.875000 0.750000
vt 0.500000 0.750000
vt 0.125000 0.750000
vt 0.375000 0.750000
vt 0.625000 0.000000
vt 0.625000 0.000000
vt 0.500000 0.750000
vt 0.875000 0.750000
vt 0.625000 0.000000
vt 0.625000 0.000000
vt 0.375000 0.750000
vt 0.500000 0.750000
vt 0.875000 0.750000
vt 0.125000 0.750000
vn -0.6482 0.0000 -0.7615
vn 0.0000 1.0000 0.0000
vn 0.0000 0.8380 -0.5457
vn 0.0000 0.0000 1.0000
vn 0.0000 -0.8380 -0.5457
vn 0.6482 0.0000 -0.7615
vn 0.0000 -1.0000 0.0000
vn 1.0000 0.0000 0.0000
vn -1.0000 0.0000 0.0000
vn 0.0000 0.9558 0.2942
vn 0.8743 0.0000 0.4854
vn 0.0000 -0.9558 0.2942
vn -0.8743 0.0000 0.4854
vn 0.9794 0.0000 0.2019
vn 0.0000 -0.9935 0.1135
vn -0.9794 0.0000 0.2019
vn 0.0000 0.9935 0.1135
vn 0.0000 -0.9724 -0.2335
vn -0.9176 0.0000 -0.3975
vn 0.0000 0.9724 -0.2335
vn 0.9176 0.0000 -0.3975
usemtl Material.011
s off
f 71/63/25 75/64/25 80/65/25 79/66/25
f 91/67/26 87/68/26 89/69/26 90/70/26
f 75/71/27 76/72/27 83/73/27 80/74/27
f 74/75/28 70/76/28 94/77/28 96/78/28
f 72/79/29 71/80/29 79/81/29 78/82/29
f 76/72/30 72/79/30 78/82/30 83/73/30
f 85/83/28 86/84/28 71/80/28 72/79/28
f 89/69/28 85/83/28 72/79/28 76/72/28
f 86/85/28 90/86/28 75/64/28 71/63/28
f 90/70/28 89/69/28 76/72/28 75/71/28
f 88/87/31 92/88/31 86/84/31 85/83/31
f 87/68/32 88/87/32 85/83/32 89/69/32
f 92/89/33 91/90/33 90/86/33 86/85/33
f 94/77/26 96/78/26 87/68/26 91/67/26
f 95/91/31 93/92/31 92/88/31 88/87/31
f 93/93/33 94/94/33 91/90/33 92/89/33
f 96/78/32 95/91/32 88/87/32 87/68/32
f 73/95/28 74/75/28 96/78/28 95/91/28
f 70/96/28 69/97/28 93/93/28 94/94/28
f 69/98/28 73/95/28 95/91/28 93/92/28
f 93/92/31 95/91/31 99/99/31 97/100/31
f 94/94/33 93/93/33 97/101/33 98/102/33
f 96/78/26 94/77/26 98/103/26 100/104/26
f 95/91/32 96/78/32 100/104/32 99/99/32
f 100/104/34 98/103/34 102/105/34 104/106/34
f 99/99/35 100/104/35 104/106/35 103/107/35
f 97/100/36 99/99/36 103/107/36 101/108/36
f 98/102/37 97/101/37 101/109/37 102/110/37
f 103/107/38 104/106/38 108/111/38 107/112/38
f 101/108/39 103/107/39 107/112/39 105/113/39
f 102/110/40 101/109/40 105/114/40 106/115/40
f 104/106/41 102/105/41 106/116/41 108/111/41
f 105/113/31 107/112/31 111/117/31 109/118/31
f 106/115/33 105/114/33 109/119/33 110/120/33
f 108/111/26 106/116/26 110/121/26 112/122/26
f 107/112/32 108/111/32 112/122/32 111/117/32
f 78/82/42 79/81/42 81/123/42 82/124/42
f 79/66/43 80/65/43 84/125/43 81/126/43
f 80/74/44 83/73/44 77/127/44 84/128/44
f 83/73/45 78/82/45 82/124/45 77/127/45
f 81/126/33 84/125/33 116/129/33 114/130/33
f 77/127/32 82/124/32 115/131/32 113/132/32
f 84/128/26 77/127/26 113/132/26 116/133/26
f 82/124/31 81/123/31 114/134/31 115/131/31
